<svg id="Layer_2" data-name="Layer 2" xmlns="http://www.w3.org/2000/svg" xmlns:xlink="http://www.w3.org/1999/xlink" viewBox="0 0 186.89 26.7"><defs><style>.cls-1{fill:url(#linear-gradient);}.cls-2{fill:#e1eeef;stroke:#e1eeef;stroke-miterlimit:10;stroke-width:0.54px;}</style><linearGradient id="linear-gradient" x1="0.26" y1="13.5" x2="68.23" y2="13.5" gradientUnits="userSpaceOnUse"><stop offset="0" stop-color="#fff"/><stop offset="1" stop-color="#5459f3"/></linearGradient></defs><title>logo</title><path class="cls-1" d="M34.19,7.5a11.13,11.13,0,0,0-6.66-3.22H27.37a9.82,9.82,0,0,0-16,.35H11.13A10.88,10.88,0,1,0,18,23.92a1.27,1.27,0,0,0-1.6-2,8.34,8.34,0,1,1,2-10.53,1.27,1.27,0,1,0,2.21-1.23,10.9,10.9,0,0,0-6.4-5.13,7.28,7.28,0,0,1,12.52,5.34A1.27,1.27,0,0,0,28,11.72H28a1.27,1.27,0,0,0,1.26-1.21,9.81,9.81,0,0,0-.45-3.39A8.63,8.63,0,0,1,32.4,9.29a8.72,8.72,0,0,1-6.12,14.89l-6.74-6.74a1.27,1.27,0,0,0-1.79,1.79l7.44,7.44,0.49,0h0.55A11.25,11.25,0,0,0,34.19,7.5Z"/><path class="cls-2" d="M55.77,24.81a13.16,13.16,0,0,1-2.94.35,7.84,7.84,0,0,1-3.49-.79,8.52,8.52,0,0,1-2.78-2.17,10.13,10.13,0,0,1-1.83-3.27,12.51,12.51,0,0,1-.66-4.13,12.08,12.08,0,0,1,.72-4.25A10.51,10.51,0,0,1,46.7,7.25a8.68,8.68,0,0,1,2.76-2.12,7.37,7.37,0,0,1,3.25-.76,11.65,11.65,0,0,1,2.89.38,12,12,0,0,1,2.15.8,1.27,1.27,0,0,1,.6,1.63v0a1.17,1.17,0,0,1-1.62.63,12,12,0,0,0-1.35-.57,8.15,8.15,0,0,0-2.74-.44,5.33,5.33,0,0,0-2.49.6,6.09,6.09,0,0,0-2,1.67,8.07,8.07,0,0,0-1.32,2.53,10.27,10.27,0,0,0-.47,3.17,10.14,10.14,0,0,0,.48,3.2,7.88,7.88,0,0,0,1.33,2.5,6,6,0,0,0,2,1.63,5.81,5.81,0,0,0,2.6.58,9.19,9.19,0,0,0,2.44-.35A9.69,9.69,0,0,0,57,21.68a1.18,1.18,0,0,1,1.66.75h0a1.28,1.28,0,0,1-.59,1.48A8.79,8.79,0,0,1,55.77,24.81Z"/><path class="cls-2" d="M67.69,24.52a0.47,0.47,0,0,1-.31.4,2.45,2.45,0,0,1-.44.11,5.72,5.72,0,0,1-.87.07,4.56,4.56,0,0,1-1.37-.23,4.39,4.39,0,0,1-1.36-.71,4.07,4.07,0,0,1-1-1.19,3.2,3.2,0,0,1-.42-1.64v-16a0.46,0.46,0,0,1,.33-0.44L64,4.38a0.46,0.46,0,0,1,.6.44V21a2,2,0,0,0,.17.86,1.86,1.86,0,0,0,.44.6,1.59,1.59,0,0,0,.58.33,2.09,2.09,0,0,0,.64.1,1.81,1.81,0,0,0,.76-0.19l0.75-.35Z"/><path class="cls-2" d="M83.63,20.95a6.81,6.81,0,0,1-3.76,3.76,7.64,7.64,0,0,1-5.64,0A6.85,6.85,0,0,1,72,23.21a7.09,7.09,0,0,1-2.06-5.06,7.2,7.2,0,0,1,.55-2.82A7.05,7.05,0,0,1,72,13a6.85,6.85,0,0,1,2.27-1.5,7.64,7.64,0,0,1,5.64,0,6.78,6.78,0,0,1,3.76,3.77,7.37,7.37,0,0,1,.54,2.82A7.25,7.25,0,0,1,83.63,20.95Zm-2.49-4.72a4.88,4.88,0,0,0-.95-1.53,4.37,4.37,0,0,0-1.4-1,4.12,4.12,0,0,0-1.74-.37,4.22,4.22,0,0,0-1.75.37,4.33,4.33,0,0,0-1.42,1,4.88,4.88,0,0,0-.95,1.53,5.41,5.41,0,0,0,0,3.83,4.7,4.7,0,0,0,.95,1.52,4.44,4.44,0,0,0,1.42,1,4.22,4.22,0,0,0,1.75.37,4.12,4.12,0,0,0,1.74-.37,4.49,4.49,0,0,0,1.4-1,4.7,4.7,0,0,0,.95-1.52A5.41,5.41,0,0,0,81.14,16.23Z"/><path class="cls-2" d="M97.52,24.6a0.55,0.55,0,0,0-.52,0,9.14,9.14,0,0,1-1.65.46,11.94,11.94,0,0,1-2.3.23A7.25,7.25,0,0,1,91.11,25a5.66,5.66,0,0,1-1.92-1,5.18,5.18,0,0,1-2-4.36V11.88a0.55,0.55,0,0,1,.55-0.55h1.57a0.55,0.55,0,0,1,.55.55v7.7a3.14,3.14,0,0,0,.3,1.42,3,3,0,0,0,.78,1A3.4,3.4,0,0,0,92,22.6a3.68,3.68,0,0,0,1.2.2,8.48,8.48,0,0,0,2-.19,4.16,4.16,0,0,0,1.18-.51,0.56,0.56,0,0,0,.26-0.47V11.88a0.55,0.55,0,0,1,.55-0.55h1.57a0.55,0.55,0,0,1,.55.55V25.77Z"/><path class="cls-2" d="M112.51,24.53a0.41,0.41,0,0,0-.24,0l-0.83.22-0.89.23q-0.44.1-.89,0.17a6.22,6.22,0,0,1-1,.07,7,7,0,0,1-6.51-4.32,7.21,7.21,0,0,1-.54-2.81,7.61,7.61,0,0,1,.52-2.85A6.74,6.74,0,0,1,103.61,13a6.54,6.54,0,0,1,2.21-1.47,7.31,7.31,0,0,1,2.79-.52,8.37,8.37,0,0,1,1.72.16,5,5,0,0,1,.86.26,0.41,0.41,0,0,0,.57-0.37V5.11A0.4,0.4,0,0,1,112,4.72l1.87-.55a0.4,0.4,0,0,1,.52.39V25.27Zm-0.69-10a0.4,0.4,0,0,0-.18-0.34,4.69,4.69,0,0,0-1.37-.63,6.35,6.35,0,0,0-1.53-.17,4.38,4.38,0,0,0-3.18,1.31,4.16,4.16,0,0,0-.92,1.45,5.15,5.15,0,0,0-.32,1.86,5.37,5.37,0,0,0,.34,1.93,4.6,4.6,0,0,0,1,1.54,4.51,4.51,0,0,0,3.32,1.41,4.05,4.05,0,0,0,1.53-.26,12.06,12.06,0,0,0,1.17-.55,0.4,0.4,0,0,0,.21-0.35V14.57Z"/><path class="cls-2" d="M184.39,24.54a0.44,0.44,0,0,0-.26,0l-0.82.22-0.89.23q-0.44.1-.89,0.17a6.22,6.22,0,0,1-1,.07A7,7,0,0,1,174,20.89a7.21,7.21,0,0,1-.54-2.81,7.61,7.61,0,0,1,.52-2.85A6.74,6.74,0,0,1,175.48,13a6.54,6.54,0,0,1,2.21-1.47,7.31,7.31,0,0,1,2.79-.52,8.37,8.37,0,0,1,1.72.16,5,5,0,0,1,.83.25,0.44,0.44,0,0,0,.6-0.41V5.14a0.44,0.44,0,0,1,.31-0.42l1.8-.53a0.44,0.44,0,0,1,.56.42V25.27Zm-0.7-9.94a0.45,0.45,0,0,0-.21-0.37,4.65,4.65,0,0,0-1.35-.62,6.35,6.35,0,0,0-1.53-.17,4.38,4.38,0,0,0-3.18,1.31,4.16,4.16,0,0,0-.92,1.45,5.15,5.15,0,0,0-.32,1.86,5.37,5.37,0,0,0,.34,1.93,4.6,4.6,0,0,0,1,1.54,4.51,4.51,0,0,0,3.32,1.41,4.05,4.05,0,0,0,1.53-.26,12,12,0,0,0,1.15-.54,0.44,0.44,0,0,0,.23-0.39V14.59Z"/><path class="cls-2" d="M133,21.68a5,5,0,0,1-1.43,1.75,6.52,6.52,0,0,1-2.24,1.09,10.65,10.65,0,0,1-2.93.38h-5.83V4.69h4.11a10.77,10.77,0,0,1,3.57.49,6.17,6.17,0,0,1,2.18,1.25,4.06,4.06,0,0,1,1.11,1.69,5.86,5.86,0,0,1,.31,1.83,4.82,4.82,0,0,1-.6,2.47,5.48,5.48,0,0,1-1.82,1.8,5.41,5.41,0,0,1,3,1.8,5.15,5.15,0,0,1,1,3.32A5.17,5.17,0,0,1,133,21.68Zm-4.42-13a2.81,2.81,0,0,0-1-1,4.42,4.42,0,0,0-1.48-.54A10.11,10.11,0,0,0,124.26,7H123a0.08,0.08,0,0,0-.08.08v6.5h1.43a8.66,8.66,0,0,0,2.17-.23,3.75,3.75,0,0,0,1.43-.67,2.59,2.59,0,0,0,.79-1,3.62,3.62,0,0,0,.25-1.37A3.06,3.06,0,0,0,128.58,8.7ZM130.43,18a2.44,2.44,0,0,0-.77-1.09,4.42,4.42,0,0,0-1.54-.79,8.73,8.73,0,0,0-2.55-.31h-2.68v6.75H126a7.18,7.18,0,0,0,2.27-.31,3.84,3.84,0,0,0,1.43-.8,2.72,2.72,0,0,0,.73-1.08,3.51,3.51,0,0,0,.2-1.16A3.86,3.86,0,0,0,130.43,18Z"/><path class="cls-2" d="M144.6,14.09a3.09,3.09,0,0,0-2-.79,4,4,0,0,0-1.59.36,2.94,2.94,0,0,0-1.38,1.47v9.75H137V11l1.86,1.16h0.09a6.38,6.38,0,0,1,1.64-.93,5.49,5.49,0,0,1,2.08-.41,6.36,6.36,0,0,1,1.89.25,4.69,4.69,0,0,1,.49.18,0.93,0.93,0,0,1,.43,1.31Z"/><path class="cls-2" d="M149.08,18.29a4,4,0,0,0,.25,1.84,4.25,4.25,0,0,0,.95,1.46,4.39,4.39,0,0,0,1.47,1,4.76,4.76,0,0,0,1.82.35,5.13,5.13,0,0,0,2.05-.41,7.89,7.89,0,0,0,1-.54,1.14,1.14,0,0,1,1.57.38h0a1.14,1.14,0,0,1-.38,1.57,9.88,9.88,0,0,1-1.59.78,8,8,0,0,1-2.88.51,7.29,7.29,0,0,1-2.85-.54,6.31,6.31,0,0,1-2.19-1.51,6.81,6.81,0,0,1-1.41-2.31,8.27,8.27,0,0,1-.5-2.91,8.06,8.06,0,0,1,.47-2.79,6.72,6.72,0,0,1,1.31-2.21,5.74,5.74,0,0,1,2-1.44,6.68,6.68,0,0,1,2.65-.51,6.26,6.26,0,0,1,2.18.41,5.34,5.34,0,0,1,2,1.3A6.82,6.82,0,0,1,158.45,15v0a2.41,2.41,0,0,1-2.24,3.29h-7.14ZM155,14.08a2.9,2.9,0,0,0-2.12-.8,3.27,3.27,0,0,0-2.23.8,4,4,0,0,0-1.24,2.17h6.7A4.17,4.17,0,0,0,155,14.08Z"/><path class="cls-2" d="M169,24.79a0.76,0.76,0,0,0-.39,0l-0.59.11q-0.5.09-1.08,0.15l-1.18.1q-0.6,0-1.09,0a3.45,3.45,0,0,1-1.59-.38,4.46,4.46,0,0,1-1.3-1,4.82,4.82,0,0,1-.87-1.37,3.85,3.85,0,0,1-.32-1.51,4.23,4.23,0,0,1,.67-2.47A4.48,4.48,0,0,1,163,16.95a7.83,7.83,0,0,1,2.46-.7,19.19,19.19,0,0,1,2.09-.15,0.76,0.76,0,0,0,.75-0.76V15.06a1.84,1.84,0,0,0-.57-1.44,2.39,2.39,0,0,0-1.64-.51,7.74,7.74,0,0,0-2,.29,6.26,6.26,0,0,0-1.38.56,0.77,0.77,0,0,1-1.07-.33l-0.34-.69a0.77,0.77,0,0,1,.34-1,8,8,0,0,1,2.14-.74,14.62,14.62,0,0,1,2.66-.26,7.14,7.14,0,0,1,1.44.16,4.17,4.17,0,0,1,1.44.6,3.44,3.44,0,0,1,1.57,3.09V25.45ZM168.28,19a0.76,0.76,0,0,0-.77-0.77q-0.57,0-1.12.06a5.52,5.52,0,0,0-1.61.38,2.71,2.71,0,0,0-1.11.83,2.18,2.18,0,0,0-.42,1.38,2.12,2.12,0,0,0,.54,1.47,1.73,1.73,0,0,0,1.35.6q0.38,0,.84,0t0.9-.12l0.81-.16h0a0.75,0.75,0,0,0,.58-0.73Z"/></svg>