<?xml version="1.0" encoding="utf-8"?>
<!-- Generator: Adobe Illustrator 19.2.0, SVG Export Plug-In . SVG Version: 6.00 Build 0)  -->
<svg version="1.1" id="Layer_2" xmlns="http://www.w3.org/2000/svg" xmlns:xlink="http://www.w3.org/1999/xlink" x="0px" y="0px"
	 viewBox="0 0 1440 563.2" style="enable-background:new 0 0 1440 563.2;" xml:space="preserve">
<style type="text/css">
	.st0{fill:#4C5ACC;}
	.st1{fill:#D0F2C0;enable-background:new    ;}
	.st2{opacity:0.76;fill:#E5F0F9;enable-background:new    ;}
	.st3{opacity:0.57;fill:#E5F0F9;enable-background:new    ;}
	.st4{opacity:0.57;fill:#FF99A3;enable-background:new    ;}
	.st5{opacity:0.88;fill:#FF99A3;enable-background:new    ;}
	.st6{fill:#FFE161;}
	.st7{opacity:0.57;fill:#FFE161;enable-background:new    ;}
	.st8{opacity:0.89;}
	.st9{fill:none;stroke:#FF99A3;stroke-width:3.08;stroke-linecap:round;stroke-miterlimit:10;}
	.st10{opacity:0.57;}
</style>
<title>main_image</title>
<rect y="0" class="st0" width="1440" height="563.2"/>
<rect x="1088.2" y="43.2" transform="matrix(0.7071 -0.7071 0.7071 0.7071 285.9948 787.4645)" class="st1" width="10.7" height="10.7"/>
<rect x="60.5" y="365.9" class="st2" width="10.7" height="10.7"/>
<rect x="1320.6" y="270.9" class="st3" width="10.7" height="10.7"/>
<polygon class="st4" points="81.8,110.7 73.8,98.8 65.9,110.7 "/>
<polygon class="st4" points="225.3,490.5 217.4,478.6 209.4,490.5 "/>
<polygon class="st5" points="1214.5,335.8 1206.6,323.9 1198.6,335.8 "/>
<circle class="st6" cx="320.2" cy="392.5" r="6"/>
<circle class="st7" cx="1404.6" cy="499.2" r="6"/>
<circle class="st7" cx="239.8" cy="68.8" r="6"/>
<circle class="st7" cx="1360.7" cy="74.9" r="6"/>
<g class="st8">
	<line class="st9" x1="494" y1="27.8" x2="480.8" y2="40.9"/>
	<line class="st9" x1="494" y1="40.9" x2="480.8" y2="27.8"/>
</g>
<g class="st10">
	<line class="st9" x1="1092.6" y1="477.9" x2="1079.4" y2="491.1"/>
	<line class="st9" x1="1092.6" y1="491.1" x2="1079.4" y2="477.9"/>
</g>
<g class="st10">
	<line class="st9" x1="546.2" y1="499.2" x2="546.2" y2="517.8"/>
	<line class="st9" x1="555.5" y1="508.5" x2="536.9" y2="508.5"/>
</g>
</svg>
