<?xml version="1.0" encoding="utf-8"?>
<!-- Generator: Adobe Illustrator 19.2.0, SVG Export Plug-In . SVG Version: 6.00 Build 0)  -->
<svg version="1.1" id="Layer_2" xmlns="http://www.w3.org/2000/svg" xmlns:xlink="http://www.w3.org/1999/xlink" x="0px" y="0px"
	 viewBox="0 0 581.5 172.1" style="enable-background:new 0 0 581.5 172.1;" xml:space="preserve">
<style type="text/css">
	.st0{fill:#FFE161;}
	.st1{enable-background:new    ;}
	.st2{fill:#EEF2FF;}
	.st3{fill:#4C5ACC;}
	.st4{font-family:'NanumBarunGothicOTF-KSCpc-EUC-H';}
	.st5{font-size:38px;}
</style>
<title>type_web</title>
<rect x="2.5" y="59.8" class="st0" width="367.9" height="45.6"/>
<g class="st1">
	<path class="st2" d="M6.2,30.9l-2.6-2c6.4-5.4,8.8-13.4,8.2-23.1H15c0,3.2-0.1,6-0.5,8.8c1.4,5.3,4.4,9.8,7.9,13.2l-2.7,2
		c-2.5-2.5-4.8-6.1-6.4-10.3C12,24,9.8,27.7,6.2,30.9z M23.7,4.1H27v33.4h-3.2V18h-5.3v-2.8h5.3L23.7,4.1L23.7,4.1z M34,38.4h-3.3
		V3.7H34V38.4z"/>
	<path class="st2" d="M50.8,4.6c0,2.3-0.2,4.4-0.7,6.3c2.1,4,5,6.8,9.2,9l-2,2.3c-3.6-1.9-6.5-4.6-8.5-7.9c-1.8,3.8-4.8,6.8-8.6,8.9
		L38,21c6.5-3.7,9.8-8.9,9.4-16.5L50.8,4.6L50.8,4.6z M66.1,31.9c0,3.9-3.8,6.8-11.2,6.8s-11.2-2.9-11.2-6.8c0-4,3.8-6.7,11.2-6.7
		S66.1,27.9,66.1,31.9z M62.7,31.9c0-2.2-2.4-4-7.8-4s-7.9,1.7-7.9,4c0,2.2,2.5,4,7.9,4S62.7,34.1,62.7,31.9z M71.2,15.5h-5.5v9.3
		h-3.3v-21h3.3v8.9h5.5V15.5z"/>
	<path class="st2" d="M72.9,28.2h7c5.1,0,12.5-0.3,17.4-1V30c-4.9,0.7-12,1.1-17.4,1.1h-7V28.2z M93.1,14.6c0,5-3.5,8.8-9,8.8
		s-9-3.8-9-8.8s3.5-8.8,9-8.8S93.1,9.6,93.1,14.6z M89.7,14.6c0-3.6-2.2-5.9-5.6-5.9s-5.6,2.3-5.6,5.9s2.2,5.9,5.6,5.9
		S89.7,18.2,89.7,14.6z M102.2,38.4H99V3.7h3.2V38.4z"/>
	<path class="st2" d="M120,23V6.6h22V23h-9.3v7.4h14.4v2.8h-32.3v-2.8h14.4V23H120z M138.6,20.2V9.4h-15.4v10.8H138.6z"/>
	<path class="st2" d="M181.4,21.6v2.8h-33.1v-2.8H181.4z M176.7,37.9h-23V27.3h3.3V35h19.7V37.9z M153.7,4.7h21.9v2.8H157v7h18.8
		v2.7h-22.2V4.7H153.7z"/>
	<path class="st2" d="M196.1,4.7h22.4c-0.1,5.2-0.5,9.5-1,12.7h6.2v2.7h-33.1v-2.7h23.6c0.3-1.6,0.5-3.1,0.6-4.6
		c-2.9,0.5-6.2,0.6-10,0.6h-9.2v-2.5h9.9c3.5,0,6.7-0.1,9.5-0.5c0-1,0.1-2,0.1-3H196L196.1,4.7L196.1,4.7z M196,38.4v-8.8h19.2v-3.4
		H196v-2.7h22.4v8.7h-19.2v3.5h20.1v2.7H196z"/>
	<path class="st2" d="M229.9,27.4h3.9c5.3,0,9.9-0.8,12.7-1.4v2.7c-3,0.8-8.4,1.5-13.1,1.5h-6.8V16.4h11.8V9.3h-11.9V6.5h15.2v12.7
		h-11.8L229.9,27.4L229.9,27.4z M258,20.1h-6v18.3h-3.3V3.7h3.3v13.5h6V20.1z"/>
	<path class="st2" d="M277.9,18.1c0,8.1-3.9,12.4-8.9,12.4c-4.9,0-8.9-4.3-8.9-12.4s4-12.4,8.9-12.4C274,5.7,277.9,10,277.9,18.1z
		 M274.6,18.1c0-5.7-2.1-9.5-5.6-9.5s-5.6,3.8-5.6,9.5s2.1,9.5,5.6,9.5S274.6,23.8,274.6,18.1z M284.5,3.7h3.3v34.7h-3.3V3.7z"/>
	<path class="st2" d="M311.9,12.4h6.5V3.7h3.2v25.1h-3.2V15.3H312c-0.6,4.3-4.2,7.5-9,7.5c-5.1,0-9-3.8-9-8.7c0-5.1,3.9-8.9,9-8.9
		C307.6,5.2,311.2,8.1,311.9,12.4z M297.5,14c0,3.4,2.2,5.8,5.6,5.8c3.3,0,5.6-2.4,5.6-5.8c0-3.5-2.3-6-5.6-6
		C299.8,8,297.5,10.5,297.5,14z M322.4,37.7H300V27h3.3v7.9h19.1V37.7z"/>
	<path class="st2" d="M359,30.6v2.8h-32.3v-2.8C326.7,30.6,359,30.6,359,30.6z M332,24.9V6.4h21.7v2.8h-18.4V14h17.8v2.7h-17.8v5.5
		h19v2.7C354.3,24.9,332,24.9,332,24.9z"/>
	<path class="st2" d="M381,9.4c-2.6,0.1-5.1,0.1-7.7,0.1h-2.5V6.7h4.6c3,0,6,0,9-0.1c-0.3,10.2-4.4,18.6-13,24.2l-2.4-2.2
		C376.8,23.9,380.6,17,381,9.4z M398.5,38.4h-3.3V19.5h-4.4v18h-3.2V4.1h3.2v12.6h4.4v-13h3.3V38.4z"/>
	<path class="st2" d="M404.4,19.9V4.7h3.3v5.1h9.3V4.7h3.3v15.1h-15.9V19.9z M417.1,12.5h-9.3V17h9.3V12.5z M431,38h-22.3v-9H427
		v-3.2h-18.3V23h21.5v8.6h-18.3v3.5H431V38z M435.7,13.8h-5.5v7.3H427V3.7h3.3V11h5.5L435.7,13.8L435.7,13.8z"/>
	<path class="st2" d="M450.5,18.6c2.2,3.3,5.1,6.7,8.5,9.1l-2.4,2.4c-3-2.3-5.6-5.4-7.8-8.7c-2.8,4.1-6.4,7.6-10.3,9.8l-2.3-2.2
		c8.1-4.4,13.3-13.6,14-19.6c-2.8,0.1-5.6,0.1-8.4,0.1h-3.6V6.7h5.7c3.2,0,6.6,0,10.1-0.1C453.9,10.7,452.6,14.9,450.5,18.6z
		 M469.9,20h-6v18.4h-3.3V3.7h3.3v13.4h6V20z"/>
	<path class="st2" d="M503.4,19.8v2.7h-33.1v-2.7H503.4z M475.6,38.4v-8H495v-2.8h-19.5v-2.7h22.7v8h-19.5v2.8h20.4v2.7H475.6z
		 M475.7,4.5h22.2v7.8H479V15h19.7v2.5h-23V9.9h18.9V7.2h-18.9V4.5z"/>
	<path class="st2" d="M527.3,37.6H524V26.3c-1.2,0-2.4,0-3.5,0h-6.7v-2.8h6.7c5.1,0,12.5-0.3,17.4-0.9v2.7c-3,0.4-6.8,0.7-10.5,0.9
		v11.4H527.3z M534,12.7c0,4.3-3.4,7.4-8.9,7.4c-5.4,0-8.9-3.2-8.9-7.4c0-4.3,3.4-7.4,8.9-7.4C530.5,5.3,534,8.5,534,12.7z
		 M530.7,12.7c0-2.7-2.2-4.7-5.6-4.7c-3.5,0-5.6,2-5.6,4.7c0,2.8,2.1,4.7,5.6,4.7C528.6,17.4,530.7,15.5,530.7,12.7z M543,38.4h-3.3
		V3.7h3.3V38.4z"/>
	<path class="st2" d="M547,11.7V8.9h20.6v2.7H547V11.7z M557.2,26c-5.8,0-8.5-3-8.5-6.3s2.7-6.3,8.5-6.3s8.5,3,8.5,6.3
		C565.7,23.1,563,26,557.2,26z M551.4,6.7V4h11.7v2.7H551.4z M557.2,23.4c3.7,0,5.2-1.8,5.2-3.6c0-1.8-1.4-3.6-5.2-3.6
		S552,18,552,19.8S553.5,23.4,557.2,23.4z M575.1,37.7h-22v-8.3h3.3v5.5h18.7V37.7z M579.8,18.5h-5.5v12H571V3.7h3.3v11.9h5.5V18.5z
		"/>
</g>
<g class="st1">
	<path class="st3" d="M19,91.5v-6.9c-6-0.6-9.8-4.3-9.8-9.1c0-5.3,4.5-9.2,11.5-9.2c7,0,11.5,3.9,11.5,9.2c0,4.8-3.8,8.5-9.8,9.1
		v6.9h14.4v2.8H4.6v-2.8H19z M28.9,75.5c0-3.4-2.7-6.3-8.2-6.3s-8.2,2.9-8.2,6.3c0,3.4,2.7,6.4,8.2,6.4S28.9,78.9,28.9,75.5z"/>
	<path class="st3" d="M71.2,83.1v2.8H38.1v-2.8H71.2z M42.2,79.1v-2.7h5L47,69.9h3.3l0.2,6.5h8.5l0.3-6.5h3.3l-0.3,6.5h5v2.7H42.2z
		 M42.7,68.5v-2.8h24.1v2.8H42.7z M66.5,98.9h-23v-9.1h3.3V96h19.7V98.9z"/>
	<path class="st3" d="M104.7,94.4H72.4v-2.8h14.5v-8.9h3.4v8.9h14.4V94.4z M90,71.3c2.8,5.2,7.2,9,12.8,10.8l-2.1,2.5
		c-4.8-1.7-9.2-5.4-12-10c-2.4,4.6-6.9,8.1-11.9,9.9L74.7,82c7.7-2.7,12.7-7.3,12.5-15.6h3.4C90.6,68.1,90.4,69.7,90,71.3z"/>
	<path class="st3" d="M138.6,91.6v2.8h-32.3v-2.8H138.6z M123.9,71.4c2.8,5.4,7.2,9.3,12.8,11.1l-2.1,2.5c-4.8-1.7-9.2-5.5-12-10.2
		c-2.4,4.7-6.9,8.2-11.9,10.1l-2.2-2.5c7.7-2.7,12.7-7.4,12.5-16.1h3.4C124.5,68.1,124.3,69.8,123.9,71.4z"/>
</g>
<text transform="matrix(1 0 0 1 139.37 94.34)" class="st2 st4 st5"> </text>
<g class="st1">
	<path class="st3" d="M168.1,65.1h3.3v33.4h-3.3V80.8h-7c-2.2,4.4-5.4,8.1-9.9,11.1l-2.4-2.2c7.6-4.8,11.4-11.6,11.9-19.3
		c-2.6,0.1-5.1,0.1-7.7,0.1h-2.5v-2.7h4.6c3,0,6,0,9-0.1c-0.1,3.7-0.7,7.1-1.9,10.3h5.8L168.1,65.1L168.1,65.1z M178.1,99.4h-3.3
		V64.7h3.3V99.4z"/>
	<path class="st3" d="M184.2,74.1c0-4.9,3.8-8.6,8.8-8.6s8.8,3.7,8.8,8.6s-3.8,8.6-8.8,8.6C188,82.8,184.2,79.1,184.2,74.1z
		 M187.4,74.1c0,3.3,2.4,5.8,5.6,5.8c3.2,0,5.6-2.5,5.6-5.8s-2.4-5.8-5.6-5.8C189.7,68.4,187.4,70.9,187.4,74.1z M211.5,98.9h-21.7
		V86.2h21.7V98.9z M208.2,89.1h-15.1V96h15.1V89.1z M208.2,64.7h3.3v19.5h-3.3V64.7z"/>
	<path class="st3" d="M226.5,91.8l-2.4-2.1c6.2-4.4,10.8-11.4,10-22.9h3.5c0.1,3.3-0.2,6.3-0.8,9c1.8,5.2,5.2,9.7,9.8,12.7l-2.1,2.4
		c-3.8-2.7-6.9-6.4-9-11C233.6,85,230.5,88.9,226.5,91.8z M242.8,79.4v-2.8h7.8V64.7h3.3v34.7h-3.3v-20H242.8z"/>
	<path class="st3" d="M276.4,76.9h8.1V64.7h3.3v34.7h-3.3V79.8h-8.1V90h-15.5V67.3h3.3v8.6h8.9v-8.6h3.2v9.6H276.4z M273.2,78.7h-9
		v8.5h9V78.7z"/>
	<path class="st3" d="M320.9,65.1h3.1v24.7h-3.1V76.2H317c-0.4,4.9-3.5,7.6-7.4,7.6c-4.2,0-7.4-3-7.4-8.7s3.2-8.7,7.4-8.7
		c3.8,0,6.7,2.4,7.3,7h4V65.1z M313.9,75c0-3.8-1.7-5.9-4.3-5.9c-2.5,0-4.3,2.1-4.3,5.9s1.7,5.9,4.3,5.9
		C312.2,80.9,313.9,78.8,313.9,75z M331.6,98.7h-22.4V87.6h3.3v8.3h19.1V98.7z M331,90.5h-3.2V64.7h3.2V90.5z"/>
	<path class="st3" d="M349.8,76.2c2,2.4,5.2,4.6,7.8,6l-2.1,2.4c-2.7-1.5-5.4-3.6-7.6-6.1c-2.9,3.1-6.7,5.5-10.7,7.3l-2.1-2.4
		c8.2-3.4,13.1-8.9,14.2-13.8c-2.8,0.1-5.6,0.1-8.4,0.1h-3.3v-2.8h5.7c3.2,0,6.5,0,10.1-0.1C353,70.4,351.7,73.6,349.8,76.2z
		 M364.8,98.7h-22V89h3.3v6.8h18.7V98.7z M360.8,64.7h3.3v25.8h-3.3V64.7z"/>
</g>
<g class="st1">
	<path class="st2" d="M409.9,91.6v2.8h-32.3v-2.8H409.9z M381.4,84.7v-2.8h4.6l-0.3-10.2h3.3l0.2,10.2h9.1l0.3-10.2h3.3l-0.4,10.2
		h4.7v2.8H381.4z M382,70.5v-2.8h23.7v2.8H382z"/>
	<path class="st2" d="M416.8,85.5V75h18.4v-5h-18.5v-2.8h21.7v10.6H420v5h19.6v2.8h-10.3v6.2h14.4v2.8h-32.3v-2.8h14.4v-6.2
		L416.8,85.5L416.8,85.5z"/>
	<path class="st2" d="M457.3,75.5c1.7,2.3,4.1,4.1,6.5,5.4l-2.2,2.3c-2.2-1.4-4.3-3.2-5.9-5.4c-2.1,2.6-4.8,4.9-7.9,6.7l-2.3-2.2
		c6.4-3.3,10.4-8.5,11.3-13.2c-1.9,0.1-4,0.1-6.2,0.1h-2.8v-2.7h4.7c2.5,0,5,0,7.9-0.1C460.3,69.5,459.2,72.6,457.3,75.5z
		 M471.9,99.5v-10H452v-2.8h23.1v12.8H471.9z M465.5,65.1h3.1v19.8h-3.1v-8.6h-4.8v-2.7h4.8V65.1z M475.1,84.8H472V64.7h3.2v20.1
		H475.1z"/>
	<path class="st2" d="M511.6,91.6v2.8h-32.3v-2.8H511.6z M484.6,85.9V67.4h21.7v2.8h-18.4V75h17.8v2.7h-17.8v5.5h19v2.7
		C506.9,85.9,484.6,85.9,484.6,85.9z"/>
</g>
<g class="st1">
	<path class="st0" d="M129,151.2v-1.4c0-13.8,7.9-19,17.7-19c4.2,0,7.1,0.7,9.4,2v5.4c-2.9-1.2-5.5-1.8-8.9-1.8
		c-6.5,0-10.9,3.6-10.9,12.7v2c0,8.8,3,13.8,10.9,13.8c4.3,0,7-1.1,9.3-2.1v5.3c-2.6,1.4-6,2.4-10.5,2.4
		C135.5,170.5,129,164.2,129,151.2z"/>
	<path class="st0" d="M162.5,128.9h6.4v40.9h-6.4V128.9z"/>
	<path class="st0" d="M174.9,156v-0.9c0-9.2,5.5-14.6,13.5-14.6c8.5,0,13.3,5.3,13.3,14.5v0.8c0,9.3-5.5,14.6-13.4,14.6
		C179.7,170.3,174.9,165,174.9,156z M195.1,156.3v-1.4c0-7.5-3-9.5-6.9-9.5c-4.3,0-6.9,3.1-6.9,9.3v1.3c0,7.5,3.1,9.5,7,9.5
		C192.7,165.5,195.1,162.5,195.1,156.3z"/>
	<path class="st0" d="M207.4,161.9v-21h6.3v19.7c0,3.1,1.1,4.4,4.6,4.4c2.5,0,4.5-0.9,6.3-1.7V141h6.3v28.8h-5.5l-0.5-2.5h-0.3
		c-2.4,1.7-5.1,3-8.7,3C210.5,170.3,207.4,167.6,207.4,161.9z"/>
	<path class="st0" d="M236.9,156.3v-0.7c0-10.6,5.3-15.1,12.6-15.1c3.3,0,5.4,0.9,6.8,1.6v-13.2h6.3v40.9h-5.4l-0.5-2.3h-0.2
		c-1.8,1.7-4.4,2.8-8,2.8C242.8,170.3,236.9,166.7,236.9,156.3z M256.3,163.4V147c-1-0.8-3.2-1.5-5.8-1.5c-4.4,0-7.1,2.4-7.1,9.5
		v1.1c0,7.2,2.9,9.4,7.2,9.4C253.2,165.4,255.2,164.2,256.3,163.4z"/>
	<path class="st0" d="M270.7,131.4h13.2c8.7,0,12.4,3.6,12.4,9.7c0,4-1.6,6.9-6.1,8.4v0.2c4.7,0.9,7.8,3.6,7.8,9.2
		c0,6.4-4.2,11-13.1,11h-14.1L270.7,131.4L270.7,131.4z M282.7,147.8c4,0,6.9-1.3,6.9-5.7c0-4.1-2.3-5.5-6.6-5.5h-5.5v11.3h5.2
		V147.8z M283.9,164.7c4.6,0,7-2,7-6.2c0-4.4-2.6-6.1-7.4-6.1h-6.1v12.3H283.9z"/>
	<path class="st0" d="M304.1,141h6.1v3.4h0.2c1.5-2.1,4.4-3.6,7.4-3.6c0.8,0,1.5,0.1,1.8,0.2v5.7c-0.7-0.1-1.6-0.2-2.3-0.2
		c-2.5,0-5.1,0.7-6.9,1.9v21.5h-6.3L304.1,141L304.1,141z"/>
	<path class="st0" d="M323.2,155.8V155c0-9.7,5.8-14.5,13-14.5c8.3,0,12,4.8,12,13.9v2.7h-18.4c0.4,6,3.4,8.1,8.8,8.1
		c3.6,0,6.3-0.8,8.7-2.1v4.5c-1.9,1.3-5.2,2.7-10,2.7C327.8,170.3,323.2,164.9,323.2,155.8z M329.7,152.8h12c0-5.4-2-7.4-5.7-7.4
		C333.2,145.3,330.1,146.9,329.7,152.8z"/>
	<path class="st0" d="M352.4,162.2c0-5.3,3.5-7.8,9.1-8.6l6.6-0.8v-2.2c0-3.9-1.7-4.8-6.5-4.8c-2.7,0-5.2,0.4-6.9,0.8v-4.4
		c2.6-1.1,5.7-1.6,9.3-1.6c6.5,0,10.3,2.6,10.3,8.6v20.7h-5.2l-0.5-2.4h-0.3c-1.4,1.6-3.6,2.9-7.3,2.9
		C355.9,170.3,352.4,167.7,352.4,162.2z M368.1,164.1V157l-5.2,0.6c-2.8,0.2-4.3,1.4-4.3,4.3c0,2.7,1.8,4,4.4,4
		C365,165.8,367,165.1,368.1,164.1z"/>
	<path class="st0" d="M380.3,156.3v-0.7c0-10.6,5.3-15.1,12.6-15.1c3.3,0,5.4,0.9,6.8,1.6v-13.2h6.3v40.9h-5.4l-0.5-2.3h-0.2
		c-1.8,1.7-4.4,2.8-8,2.8C386.2,170.3,380.3,166.7,380.3,156.3z M399.7,163.4V147c-1-0.8-3.2-1.5-5.8-1.5c-4.4,0-7.1,2.4-7.1,9.5
		v1.1c0,7.2,2.9,9.4,7.2,9.4C396.6,165.4,398.6,164.2,399.7,163.4z"/>
</g>
</svg>
